<?xml version="1.0" encoding="iso-8859-1"?>
<!-- Generator: Adobe Illustrator 16.0.0, SVG Export Plug-In . SVG Version: 6.00 Build 0)  -->
<!DOCTYPE svg PUBLIC "-//W3C//DTD SVG 1.1//EN" "http://www.w3.org/Graphics/SVG/1.1/DTD/svg11.dtd">
<svg version="1.1" id="Capa_1" xmlns="http://www.w3.org/2000/svg" xmlns:xlink="http://www.w3.org/1999/xlink" x="0px" y="0px"
	 width="612px" height="612px" viewBox="0 0 612 612" style="enable-background:new 0 0 612 612;" xml:space="preserve">
<g>
	<g id="Rectangle_46_copy_2">
		<g>
			<path d="M153,264.273h-27.818v27.818H69.545v-27.818H41.727v27.818H0v27.818h41.727v27.818h27.818v-27.818h55.636v27.818H153
				v-27.818h41.727v-27.818H153V264.273z M319.909,417.272h-27.818V459h-27.818v27.818h27.818v55.636h-27.818v27.818h27.818V612
				h27.818v-41.728h27.818v-27.818h-27.818v-55.636h27.818V459h-27.818V417.272z M319.909,0h-27.818v41.728h-27.818v27.818h27.818
				v55.636h-27.818V153h27.818v41.728h27.818V153h27.818v-27.818h-27.818V69.545h27.818V41.728h-27.818V0z M570.272,292.091v-27.818
				h-27.818v27.818h-55.636v-27.818H459v27.818h-41.728v27.818H459v27.818h27.818v-27.818h55.636v27.818h27.818v-27.818H612v-27.818
				H570.272z M319.909,292.091h-27.818v27.818h27.818V292.091z"/>
		</g>
	</g>
</g>
<g>
</g>
<g>
</g>
<g>
</g>
<g>
</g>
<g>
</g>
<g>
</g>
<g>
</g>
<g>
</g>
<g>
</g>
<g>
</g>
<g>
</g>
<g>
</g>
<g>
</g>
<g>
</g>
<g>
</g>
</svg>
